<?xml version="1.0" encoding="utf-8"?>
<!-- Svg Vector Icons : http://www.onlinewebfonts.com/icon -->
<!DOCTYPE svg PUBLIC "-//W3C//DTD SVG 1.1//EN" "http://www.w3.org/Graphics/SVG/1.1/DTD/svg11.dtd">
<svg version="1.1" xmlns="http://www.w3.org/2000/svg" xmlns:xlink="http://www.w3.org/1999/xlink" x="0px" y="0px" viewBox="0 0 1000 1000" enable-background="new 0 0 1000 1000" xml:space="preserve">
<metadata> Svg Vector Icons : http://www.onlinewebfonts.com/icon </metadata>
<g><g transform="translate(0.000000,511.000000) scale(0.100000,-0.100000)"><path d="M4039.6,4575.8c-66.2-37.3-101.4-86.9-202.7-287.5c-68.3-134.5-140.7-260.6-159.3-283.4c-20.7-24.8-405.4-184.1-966-401.3c-928.8-357.9-930.9-357.9-1048.8-471.7c-66.2-60-438.5-399.2-831.6-753c-393-351.7-719.9-662-726.1-686.8c-8.3-24.8-6.2-57.9,4.1-74.5c47.6-89,1110.8-1317.7,1146-1328.1c33.1-10.3,117.9,37.2,353.7,198.6l312.4,211l-12.4-225.5c-8.3-124.1-51.7-1257.7-99.3-2517.5C1731-4104.2,1726.9-4340,1753.8-4369c29-26.9,384.8-31,3233.2-31c2763.7,0,3206.3,4.1,3231.2,31c26.9,24.8,18.6,277.2-53.8,1961C8034.1,556.4,8030,649.5,8042.4,661.9c6.2,6.2,151-78.6,322.7-186.2c223.4-142.7,326.8-198.6,364.1-192.4c39.3,4.1,188.2,165.5,610.2,666.1c353.7,415.8,560.6,678.5,560.6,705.4c0,33.1-194.5,221.3-697.1,674.4c-382.7,345.5-767.5,695.1-854.3,773.7l-155.1,144.8l-939.2,362c-1063.3,409.6-943.3,335.1-1125.3,695c-51.7,101.4-124.1,213.1-159.3,246.2l-64.1,62.1l-893.6,4.1C4120.3,4623.3,4118.2,4623.3,4039.6,4575.8z M5783.4,4402c-2.1-10.3-49.6-86.9-109.6-171.7l-107.6-155.1l-573-6.2l-570.9-4.1l-115.8,167.5c-64.1,91-115.8,169.6-115.8,175.8c0,4.1,357.9,8.3,796.4,8.3C5425.6,4416.5,5783.4,4410.3,5783.4,4402z M4432.7,3663.5c208.9-302,382.7-560.6,388.9-575.1c16.5-39.3-531.6-542-550.3-506.8c-8.3,14.5-103.4,308.2-215.1,655.8l-200.7,630.9l89,169.6c49.6,95.1,95.2,171.7,101.4,171.7S4225.8,3963.4,4432.7,3663.5z M6029.6,4037.9l88.9-169.6l-200.7-630.9c-111.7-347.5-208.9-643.4-215.1-655.8c-8.3-16.5-107.6,68.3-275.1,237.9L5167,3082.2l374.4,562.7c206.9,310.3,380.6,562.6,386.8,564.7C5934.5,4209.6,5980,4133.1,6029.6,4037.9z M5375.9,3797.9c-18.6-29-109.6-167.5-202.7-308.2l-169.6-254.5l-72.4,99.3c-136.5,188.2-347.5,498.5-347.5,508.9c0,6.2,186.2,10.3,413.7,8.3l413.7-2.1L5375.9,3797.9z M3888.6,3036.7c122-384.8,235.8-719.9,252.4-744.7c51.7-80.7,122-60,264.8,76.5c72.4,68.3,136.5,124.1,142.7,124.1c8.3,0,16.6-403.4,18.6-893.6l6.2-895.7l196.5,2.1c217.2,2.1,351.7,45.5,461.3,148.9c130.3,122.1,128.3,109.6,134.5,943.3l6.2,761.3l163.4-157.2c175.8-171.7,242-196.5,297.9-109.6c16.5,24.8,130.3,359.9,252.4,744.7c122.1,382.7,231.7,697.1,242,697.1c8.3,0,395.1-146.9,856.4-324.8l839.9-324.8l-14.5-165.5c-8.3-93.1-55.8-562.7-107.5-1046.7c-51.7-484.1-93.1-916.4-95.2-961.9c0-62.1,148.9-3520.8,215.1-4981.2l6.2-117.9H4980.8h-3045l10.3,200.7c6.2,111.7,49.6,1185.3,93.1,2385.1c45.5,1199.8,86.9,2242.4,93.1,2316.9c8.3,84.8-22.8,533.7-84.8,1245.3c-53.8,612.3-93.1,1117.1-86.9,1123.3c14.5,14.5,1657,649.5,1683.9,651.6C3656.9,3733.8,3766.6,3419.4,3888.6,3036.7z M5224.9,1903.1c0-744.7-2.1-813-37.2-879.2c-53.8-101.4-184.1-167.6-347.5-182l-132.4-10.3l-4.1,649.5c-2.1,357.9-4.1,761.2-6.2,897.8l-4.1,248.2l157.2,148.9l157.2,148.9l109.6-107.6l107.6-105.5V1903.1z M1832.4,1894.8c76.5-883.3,78.6-941.2,45.5-966c-148.9-111.7-566.8-382.7-583.4-376.5c-31,10.3-930.9,1079.8-928.8,1102.6c0,10.3,310.3,297.9,686.8,639.2c508.9,457.2,688.9,606.1,693,579.2C1747.6,2850.5,1786.9,2412,1832.4,1894.8z M9113.9,2122.4c279.3-252.4,506.8-469.6,506.8-484c0-31-899.9-1106.7-926.7-1108.8c-8.3-2.1-161.3,91-341.3,204.8l-326.8,206.9l99.3,937.1c55.8,513,105.5,955.7,111.7,982.6c8.3,45.5,22.8,37.2,190.3-115.8C8526.4,2654,8834.7,2374.7,9113.9,2122.4z"/><path d="M5818.6,1423.2c-8.3-6.2-14.5-262.7-14.5-568.9c0-515.1,2.1-562.7,41.4-637.1c22.8-43.5,70.3-103.4,107.6-132.4c111.7-84.8,223.4-99.3,670.2-91c339.3,6.2,424.1,12.4,477.9,41.4c88.9,49.6,184.1,171.7,206.9,262.7c8.3,41.4,12.4,312.4,6.2,602l-10.3,527.5l-736.4,6.2C6164.1,1435.6,5826.9,1431.5,5818.6,1423.2z M7179.8,817.1c0-703.3,18.6-682.6-604-682.6c-451,0-506.8,12.4-593.7,130.3c-41.4,53.8-43.5,93.1-49.7,523.4c-4.1,256.5-2.1,477.9,2.1,492.3c8.3,22.8,136.5,26.9,628.9,24.8l616.4-2.1V817.1z"/><path d="M6066.9,1114.9c-33.1-33.1-12.4-91,37.2-103.4c86.9-20.7,159.3,6.2,151,60c-4.1,37.2-20.7,47.6-88.9,51.7C6118.6,1127.4,6075.1,1123.2,6066.9,1114.9z"/><path d="M6480.6,1114.9c-33.1-33.1-12.4-91,37.2-103.4c86.9-20.7,159.3,6.2,151,60c-4.1,37.2-20.7,47.6-88.9,51.7C6532.3,1127.4,6488.8,1123.2,6480.6,1114.9z"/><path d="M6894.3,1114.9c-33.1-33.1-12.4-91,37.2-103.4c86.9-20.7,159.3,6.2,151,60c-4.1,37.2-20.7,47.6-88.9,51.7C6946,1127.4,6902.6,1123.2,6894.3,1114.9z"/><path d="M4908.4,2538.2c-20.7-20.7-35.2-57.9-35.2-82.7c0-43.5,70.3-107.6,117.9-107.6c37.2,0,109.6,76.5,109.6,113.8c0,43.4-74.5,113.8-120,113.8C4958.1,2575.4,4927.1,2558.9,4908.4,2538.2z"/><path d="M4906.4,1489.4c-103.4-105.5,35.2-242,146.9-144.8c55.9,47.6,55.9,51.7,26.9,107.6C5042.9,1520.4,4956,1539,4906.4,1489.4z"/><path d="M667.8,1878.3c-49.7-47.6,53.8-211,115.8-186.2c47.6,18.6,43.4,80.7-8.3,146.9C734,1890.7,694.7,1907.2,667.8,1878.3z"/><path d="M909.8,1532.8c-18.6-45.5,76.5-159.3,126.2-153.1c57.9,8.3,62.1,60,10.3,126.2C998.8,1565.9,928.4,1580.4,909.8,1532.8z"/><path d="M1184.9,1237c-29-26.9-12.4-80.7,37.2-136.5c60-62.1,74.5-66.2,109.6-31c35.2,35.2,31,45.5-29,117.9C1251.1,1249.4,1211.8,1266,1184.9,1237z"/><path d="M1433.2,889.5c-18.6-43.5,51.7-120,95.1-103.4c68.3,26.9,29,134.5-49.6,134.5C1460,920.5,1439.4,906,1433.2,889.5z"/><path d="M9198.7,1818.3c-51.7-66.2-55.8-128.2-8.3-146.9c43.4-16.5,134.5,86.9,126.2,146.9C9308.4,1882.4,9248.4,1882.4,9198.7,1818.3z"/><path d="M8927.8,1485.2c-51.7-66.2-47.6-117.9,10.3-126.2c49.7-6.2,144.8,107.5,126.2,153.1C9045.7,1559.7,8975.3,1545.2,8927.8,1485.2z"/><path d="M8671.2,1168.7c-28.9-35.2-53.8-72.4-53.8-80.7c0-18.6,45.5-64.1,66.2-64.1c33.1,0,120,115.8,115.8,155.1C8789.1,1243.2,8731.2,1239.1,8671.2,1168.7z"/><path d="M8435.4,875c-35.2-35.2-31-99.3,10.4-113.8c41.4-16.5,113.8,64.1,95.1,107.6C8528.5,906,8468.5,908.1,8435.4,875z"/></g></g>
</svg>