<?xml version="1.0" encoding="utf-8"?>
<!-- Svg Vector Icons : http://www.onlinewebfonts.com/icon -->
<!DOCTYPE svg PUBLIC "-//W3C//DTD SVG 1.1//EN" "http://www.w3.org/Graphics/SVG/1.1/DTD/svg11.dtd">
<svg version="1.1" xmlns="http://www.w3.org/2000/svg" xmlns:xlink="http://www.w3.org/1999/xlink" x="0px" y="0px" viewBox="0 0 1000 1000" enable-background="new 0 0 1000 1000" xml:space="preserve">
<metadata> Svg Vector Icons : http://www.onlinewebfonts.com/icon </metadata>
<g><g transform="translate(0.000000,454.000000) scale(0.100000,-0.100000)"><path d="M2596.9,3855.9C2294.3,3706.5,1434.6,2776,333.6,1403.1l-233.6-293l70.8-65.1C211,1010.5,582.5,679.3,998,309.7l754.4-672.1L1965-80.9C2081.8,74.2,2204.3,237,2235,281c32.6,46,63.2,82.3,72.8,82.3c7.7,0,13.4-1162.3,13.4-2584.9v-2584.9h2680.7h2680.7l3.8,2611.7L7692,415l287.2-356.1c158.9-195.3,296.8-356.2,308.3-356.2c11.5,0,379.1,314,813.8,697c436.6,384.9,796.6,700.8,798.5,702.7c17.2,11.5-896.1,1127.8-1353.7,1654.4c-373.4,430.8-921,968.9-1074.2,1058.9l-124.5,70.8h-731.4h-733.3V3718c0-338.9-76.6-551.5-264.2-739.1c-344.7-344.7-877-344.7-1225.5,0c-195.3,195.3-270,407.8-271.9,779.3v128.3h-731.4C2769.2,3886.5,2646.6,3880.8,2596.9,3855.9z M3766.8,3432.7c21.1-137.9,101.5-361.9,174.2-484.4c137.9-237.4,409.8-451.9,677.8-538.1c174.2-57.4,503.6-70.8,670.2-28.7c474.9,118.7,836.8,492.1,934.4,965l32.5,157h517h518.9l170.4-149.4c262.3-227.9,764-781.2,1351.8-1487.8c260.4-312.1,538.1-656.8,559.1-693.1c9.6-13.4-181.9-193.4-503.6-478.7C8584.3,443.8,8345,237,8337.3,233.1c-7.7-1.9-243.2,277.6-522.7,622.3l-505.5,628l-5.7-2952.6l-3.8-2954.5H4992.2H2684.9v2962.1v2960.2l-480.6-639.5C1942,507,1718,212.1,1710.3,204.4c-9.6-9.6-258.5,201-555.3,465.3l-538,480.6l36.4,51.7c84.2,118.7,641.4,787,947.8,1143.1c427,492.1,750.6,836.8,951.6,1016.7l158.9,141.7h522.7h520.8L3766.8,3432.7z"/></g></g>
</svg>