<?xml version="1.0" encoding="utf-8"?>
<!-- Svg Vector Icons : http://www.onlinewebfonts.com/icon -->
<!DOCTYPE svg PUBLIC "-//W3C//DTD SVG 1.1//EN" "http://www.w3.org/Graphics/SVG/1.1/DTD/svg11.dtd">
<svg version="1.1" xmlns="http://www.w3.org/2000/svg" xmlns:xlink="http://www.w3.org/1999/xlink" x="0px" y="0px" viewBox="0 0 1000 1000" enable-background="new 0 0 1000 1000" xml:space="preserve">
<metadata> Svg Vector Icons : http://www.onlinewebfonts.com/icon </metadata>
<g><g transform="translate(0.000000,511.000000) scale(0.100000,-0.100000)"><path d="M2228.1,4018.9C2174.8,3967.5,121.5,835.3,105.7,777.9c-25.7-98.8,7.9-128.5,687.7-638.3c656.1-490.1,711.4-525.7,798.4-492.1c15.8,5.9,183.8,217.4,371.5,468.4l341.9,456.5l9.9-2169.8l9.9-2169.8l47.4-37.5c45.5-35.6,114.6-37.5,2630.3-37.5s2584.8,2,2630.3,37.5l47.4,37.5l9.9,2165.9l9.9,2165.9l334-444.6c183.8-245.1,351.8-456.5,373.5-466.4c19.8-11.9,61.3-17.8,90.9-13.8c27.7,4,345.8,227.3,717.3,507.9c743,557.3,731.2,545.4,642.3,699.6c-45.4,77.1-1978.2,3027.5-2053.3,3134.2c-21.7,29.6-63.2,51.4-118.6,63.2c-47.4,7.9-434.8,15.8-861.6,17.8h-776.6l-45.5-45.4c-39.5-39.5-47.4-71.1-57.3-251c-23.7-391.3-128.5-648.2-357.7-879.4c-134.4-136.4-357.7-290.5-507.9-353.7c-69.2-29.6-77.1-27.7-213.4,37.5c-314.2,150.2-539.5,347.8-660,579c-94.9,181.8-132.4,330-146.2,596.8c-9.9,199.6-17.8,231.2-57.3,270.7l-45.4,45.4h-839.9h-839.9L2228.1,4018.9z M3747.8,3633.5c77.1-667.9,456.5-1142.2,1128.4-1411l152.2-61.3l199.6,98.8c610.7,296.4,946.6,750.9,1029.6,1393.2l11.9,92.9h646.2c355.7,0,656.1-7.9,667.9-15.8c23.7-15.8,1948.5-2950.4,1940.6-2958.3c-4-2-223.3-166-490.1-365.6C8767.3,206.8,8540,36.9,8530.2,29c-13.8-9.9-179.8,197.6-444.6,551.3c-233.2,312.2-440.7,583-462.4,600.8c-59.3,49.4-144.3,43.5-199.6-13.8l-49.4-47.4v-2324v-2322H5002.7H2631.3V-1222c0,1713.3-5.9,2314.1-23.7,2345.7c-49.4,94.9-156.1,122.5-229.2,59.3c-21.8-19.8-227.3-286.5-456.5-592.9C1692.6,281.9,1495,30.9,1485.1,30.9c-33.6,0-998,733.2-996,756.9c2,19.8,1851.7,2861.5,1909,2934.6c15.8,17.8,175.9,23.7,679.8,23.7h658.1L3747.8,3633.5z"/><path d="M4232,1196.9c-142.3-29.6-367.6-152.2-470.3-254.9c-166-166-260.9-403.1-260.9-644.2c2-254.9,120.5-464.4,444.6-792.4c130.4-130.4,407.1-373.5,612.6-537.5c308.3-247,387.3-300.4,438.7-300.4c53.3,0,134.4,55.3,464.4,318.2C6312.9-336.6,6552-0.7,6488.8,430.1c-45.4,306.3-229.2,561.2-502,687.7c-316.2,148.2-644.2,116.6-915-90.9l-71.2-53.3l-86.9,63.2C4704.3,1187,4461.2,1244.3,4232,1196.9z M4627.2,845.1c49.4-23.7,136.3-88.9,193.7-142.3c146.2-138.3,201.6-138.3,357.7,2c158.1,146.2,243.1,183.8,407.1,185.8c207.5,0,318.2-39.5,436.7-156.1c114.6-116.6,156.1-229.2,156.1-426.9c-2-264.8-197.6-503.9-828-1003.9c-310.3-247-357.7-278.7-385.4-254.9c-17.8,15.8-169.9,136.4-337.9,270.7c-361.6,288.5-660,581-739.1,727.2c-132.4,251-61.2,606.7,150.2,749C4196.4,902.4,4465.2,924.2,4627.2,845.1z"/></g></g>
</svg>