<?xml version="1.0" encoding="utf-8"?>
<!-- Svg Vector Icons : http://www.onlinewebfonts.com/icon -->
<!DOCTYPE svg PUBLIC "-//W3C//DTD SVG 1.1//EN" "http://www.w3.org/Graphics/SVG/1.1/DTD/svg11.dtd">
<svg version="1.1" xmlns="http://www.w3.org/2000/svg" xmlns:xlink="http://www.w3.org/1999/xlink" x="0px" y="0px" viewBox="0 0 1000 1000" enable-background="new 0 0 1000 1000" xml:space="preserve">
<metadata> Svg Vector Icons : http://www.onlinewebfonts.com/icon </metadata>
<g><g transform="translate(0.000000,512.000000) scale(0.100000,-0.100000)"><path d="M2800.1,5003.5c-178.2-21.1-463.7-93.9-674.5-170.5c-358.3-130.3-665-302.8-1351-762.7C406.7,3823,102,3619.9,100,3618c-7.7-7.7,896.8-2301.5,916-2318.7c13.4-15.3,458,67.1,634.3,115c30.7,9.6,34.5-155.2,38.3-2851.4c5.7-2742.2,7.7-2864.9,42.2-2956.8c63.2-168.6,132.2-249.1,274-320l130.3-63.2H5000h2864.9l130.3,63.2c141.8,70.9,210.8,151.4,274,320c34.5,92,36.4,214.6,42.2,2956.8c3.8,2696.2,7.7,2861,38.3,2851.4c176.3-47.9,620.9-130.3,634.3-115c17.2,17.3,923.6,2311,916,2318.7c-1.9,1.9-304.7,205-674.5,452.3c-881.5,590.2-1234.1,764.6-1814.7,900.7c-176.3,42.1-191.6,42.1-2324.5,46C3905.8,5018.8,2876.8,5013.1,2800.1,5003.5z M3461.2,4672c74.7-469.5,404.3-910.2,835.5-1122.9c276-136.1,390.9-162.9,703.3-162.9s427.3,26.8,703.3,162.9c433.1,212.7,760.8,653.4,835.5,1124.9l23,143.7l354.5-9.6c298.9-7.7,385.2-17.3,555.7-59.4c469.5-118.8,837.4-306.6,1590.5-812.5c321.9-216.6,586.4-394.8,590.2-396.7c3.8-3.8-781.8-2008.3-793.3-2019.8c-5.8-5.7-477.2,90.1-711,145.6l-44.1,9.6l-3.8-2985.6l-5.7-2987.5l-47.9-95.8c-36.4-70.9-69-105.4-132.2-138l-84.3-44.1H5001.9H2171.6l-84.3,44.1c-67.1,32.6-97.7,65.2-134.1,138l-47.9,95.8l-5.7,2987.5l-3.8,2985.6l-44.1-9.6c-218.5-51.7-705.2-151.4-710.9-145.6c-13.4,11.5-799.1,2015.9-793.3,2019.8c3.8,1.9,268.3,180.1,590.2,396.7c1034.8,693.7,1481.3,871.9,2203.7,875.7l297,1.9L3461.2,4672z M6351,4752.4c-70.9-354.5-166.7-540.4-400.5-772.3c-139.9-139.9-207-189.7-337.3-254.9c-208.9-101.6-385.2-143.7-613.2-143.7c-228,0-404.3,42.1-613.2,143.7c-130.3,65.1-197.4,115-337.3,254.9c-228,228-348.8,458-400.5,762.7l-11.5,70.9H5000h1364.4L6351,4752.4z"/></g></g>
</svg>