<?xml version="1.0" encoding="utf-8"?>
<!-- Svg Vector Icons : http://www.onlinewebfonts.com/icon -->
<!DOCTYPE svg PUBLIC "-//W3C//DTD SVG 1.1//EN" "http://www.w3.org/Graphics/SVG/1.1/DTD/svg11.dtd">
<svg version="1.1" xmlns="http://www.w3.org/2000/svg" xmlns:xlink="http://www.w3.org/1999/xlink" x="0px" y="0px" viewBox="0 0 1000 1000" enable-background="new 0 0 1000 1000" xml:space="preserve">
<metadata> Svg Vector Icons : http://www.onlinewebfonts.com/icon </metadata>
<g><g transform="translate(0.000000,511.000000) scale(0.100000,-0.100000)"><path d="M2341.2,4965.6c-39.9-39.9-42.1-69.4-42.1-912.5v-868.4l-370.1-534.1c-203.9-292.3-370.1-550.9-370.1-576.1c0-23.1,40-109.3,88.3-189.2c149.3-243.9,349-677.1,450-981.9c100.9-298.6,201.9-761.2,246-1120.7c35.7-275.4,35.7-1091.3,0-1398.2c-98.8-891.5-374.3-1909.2-725.4-2682.9c-96.7-212.4-100.9-273.3-25.2-302.8c113.5-42.1,1265.8-134.6,2104.7-168.2c1272.1-50.5,2895.3-6.3,4299.9,117.7c382.7,35.8,462.6,54.7,462.6,122c0,12.6-42.1,130.3-94.6,260.7c-285.9,727.5-506.7,1593.8-611.9,2411.7c-56.8,424.7-56.8,1581.2-2.1,1987c84.1,616.1,231.3,1198.5,416.3,1640c58.9,145.1,109.3,283.9,107.2,309.1c0,23.1-132.5,281.7-296.5,571.9l-296.5,529.9V4051c0,1053.4,33.6,956.7-325.9,956.7c-214.5,0-246-4.2-283.9-42.1c-23.1-23.1-42.1-58.9-42.1-77.8c0-56.8-86.2-998.7-94.6-1049.2c-16.8-79.9-773.8-294.4-1314.1-370.1c-296.5-39.9-1026.1-35.7-1322.5,10.5c-428.9,67.3-1156.4,277.6-1234.2,357.4c-14.7,14.7-44.2,256.5-71.5,550.9c-25.2,288.1-54.7,540.4-65.2,559.3c-27.3,52.6-67.3,61-315.4,61C2410.6,5007.7,2379,5003.5,2341.2,4965.6z M2749.1,4698.6c6.3-44.2,27.3-258.6,44.2-479.4c73.6-878.9,96.7-1091.3,121.9-1122.8c31.5-39.9,393.2-208.2,624.5-292.3c544.6-197.7,902-262.8,1450.8-264.9c441.6,0,647.6,25.2,1040.8,128.3c351.1,90.4,965.1,346.9,1034.5,431c23.1,25.2,52.6,294.4,122,1120.7c16.8,208.2,37.8,418.4,44.2,468.9l10.5,88.3h115.6h117.8l-6.3-824.2l-6.3-826.3l288.1-513c157.7-281.7,288.1-523.5,288.1-538.3c0-14.7-27.3-94.6-63.1-176.6c-132.5-323.8-292.3-883.1-365.9-1286.8c-239.7-1297.3-145.1-2735.5,271.2-4127.4c79.9-271.2,222.9-685.4,294.4-857.9c18.9-48.4,0-52.6-515.1-90.4c-1574.9-115.6-2975.2-138.8-4341.9-71.5c-534.1,25.2-1467.6,103-1486.6,122c-8.4,8.4,29.4,128.2,86.2,264.9c311.2,767.5,538.3,1659,637.1,2481.1c40,351.1,35.7,1261.6-10.5,1587.5c-103,735.9-359.6,1495-679.2,2022.7l-75.7,124.1l58.9,88.3c31.5,48.4,189.2,275.4,349,504.6c159.8,229.2,300.7,437.3,313.3,462.6c18.9,31.5,21,260.7,14.7,849.5l-12.6,805.3h111.4h111.4L2749.1,4698.6z M3283.2,3514.8c622.4-220.8,1196.4-309.1,1875.5-288.1c536.2,16.8,1000.8,94.6,1507.6,256.5c124,40,229.2,69.4,231.3,65.2c4.2-4.2,0-75.7-6.3-157.7l-14.7-151.4l-138.8-69.4c-296.5-149.3-782.2-302.8-1179.6-374.3c-98.8-16.8-317.5-27.3-588.7-25.2c-384.8,0-460.5,6.3-700.2,56.8c-502.5,107.2-1171.2,363.8-1171.2,452.1c0,21-6.3,98.8-12.6,170.3c-8.4,69.4-8.4,128.3,0,128.3S3182.3,3548.4,3283.2,3514.8z"/><path d="M2082.6-4027.3c-8.4-6.3-14.7-29.4-14.7-50.4c0-27.4,21-42.1,79.9-50.5c42.1-6.3,100.9-16.8,130.4-21c119.9-16.8,147.2,92.5,31.5,117.7C2221.4-4012.6,2099.4-4010.5,2082.6-4027.3z"/><path d="M7425.3-4048.3c-86.2-10.5-132.5-52.6-113.5-103c10.5-27.3,33.6-31.5,145.1-18.9c140.9,14.7,191.4,46.3,170.3,100.9C7614.6-4033.6,7591.5-4031.5,7425.3-4048.3z"/><path d="M2593.5-4124c0-63.1,31.5-77.8,180.8-77.8c84.1,0,117.7,8.4,128.3,33.6c18.9,52.6-23.1,75.7-170.3,86.2C2595.6-4069.4,2593.5-4071.4,2593.5-4124z"/><path d="M6824-4119.8c-31.5-10.5-46.3-33.7-42.1-54.7c8.4-50.4,237.6-65.2,298.6-21c73.6,54.7,27.3,98.8-96.7,96.7C6922.8-4098.8,6851.3-4107.2,6824-4119.8z"/><path d="M3121.3-4147.2c-23.1-27.3-23.1-39.9-2.1-65.2c37.8-46.3,290.2-44.1,309.1,2.1c18.9,50.5-16.8,69.4-153.5,84.1C3173.8-4115.6,3144.4-4119.8,3121.3-4147.2z"/><path d="M6285.7-4166.1c-23.1-16.8-31.5-40-21-63.1c10.5-27.3,37.9-35.7,132.5-35.7c132.5,0,206.1,35.7,185,92.5C6565.4-4130.3,6342.5-4124,6285.7-4166.1z"/><path d="M3638.5-4187.1c-23.1-63.1,23.1-88.3,168.2-88.3c121.9,0,143,6.3,149.3,40c12.6,56.8-31.5,75.7-176.6,75.7C3689-4159.8,3646.9-4168.2,3638.5-4187.1z"/><path d="M5816.8-4174.5c-67.3-8.4-107.2-61-73.6-94.6c10.5-10.5,84.1-16.8,164-12.6c122,6.3,145.1,12.6,151.4,46.3C6073.4-4166.1,6010.3-4151.3,5816.8-4174.5z"/><path d="M4162.1-4212.3c-21-54.7,0-69.4,121.9-84.1c145.1-18.9,206.1,0,197.6,58.9c-6.3,42.1-21,46.3-155.6,52.6C4202-4180.8,4172.6-4185,4162.1-4212.3z"/><path d="M4698.2-4210.2c-12.6-14.7-18.9-44.2-10.5-63.1c18.9-48.4,298.6-50.5,315.4-2.1c8.4,16.8,2.1,46.3-12.6,63.1C4956.9-4170.3,4731.9-4168.2,4698.2-4210.2z"/><path d="M5223.9-4208.1c-12.6-16.8-16.8-46.3-10.5-65.2c10.5-29.4,39.9-33.6,164-29.4c143,6.3,149.3,8.4,149.3,58.9c0,50.5-6.3,52.6-138.8,58.9C5289.1-4180.8,5242.8-4187.1,5223.9-4208.1z"/></g></g>
</svg>